<svg xmlns="http://www.w3.org/2000/svg" viewBox="0 0 640 400" width="640" height="400">
  <defs>
    <linearGradient id="torusGrad" x1="0%" y1="100%" x2="100%" y2="0%">
      <stop offset="0%" stop-color="#22D3EE"/>
      <stop offset="30%" stop-color="#06B6D4"/>
      <stop offset="60%" stop-color="#3B82F6"/>
      <stop offset="100%" stop-color="#1E40AF"/>
    </linearGradient>
    <linearGradient id="fuelGrey" x1="0" y1="0" x2="0" y2="1">
      <stop offset="0%" stop-color="#BFC5CD"/>
      <stop offset="100%" stop-color="#858C96"/>
    </linearGradient>
    <linearGradient id="proGrad" x1="0" y1="0" x2="1" y2="0">
      <stop offset="0%" stop-color="#3B82F6"/>
      <stop offset="100%" stop-color="#1E40AF"/>
    </linearGradient>
    <clipPath id="cardClip">
      <rect x="0" y="0" width="640" height="400" rx="22"/>
    </clipPath>
  </defs>

  <rect x="0" y="0" width="640" height="400" rx="22" fill="#000000"/>

  <g clip-path="url(#cardClip)">
    <rect x="14" y="14" width="612" height="372" rx="14"
          fill="none" stroke="#7FB8D4" stroke-width="1" opacity="0.6"/>

    <g transform="rotate(22 80 100)">
      <ellipse cx="80" cy="-77.33" rx="71.80" ry="18.67" fill="none" stroke="url(#torusGrad)" stroke-width="0.85"/>
      <ellipse cx="80" cy="-64.67" rx="99.78" ry="25.94" fill="none" stroke="url(#torusGrad)" stroke-width="0.85"/>
      <ellipse cx="80" cy="-52.00" rx="120.00" ry="31.20" fill="none" stroke="url(#torusGrad)" stroke-width="0.85"/>
      <ellipse cx="80" cy="-39.33" rx="135.97" ry="35.35" fill="none" stroke="url(#torusGrad)" stroke-width="0.85"/>
      <ellipse cx="80" cy="-26.67" rx="149.07" ry="38.76" fill="none" stroke="url(#torusGrad)" stroke-width="0.85"/>
      <ellipse cx="80" cy="-14.00" rx="160.00" ry="41.60" fill="none" stroke="url(#torusGrad)" stroke-width="0.85"/>
      <ellipse cx="80" cy="-1.33" rx="169.18" ry="43.99" fill="none" stroke="url(#torusGrad)" stroke-width="0.85"/>
      <ellipse cx="80" cy="11.33" rx="176.89" ry="45.99" fill="none" stroke="url(#torusGrad)" stroke-width="0.85"/>
      <ellipse cx="80" cy="24.00" rx="183.30" ry="47.66" fill="none" stroke="url(#torusGrad)" stroke-width="0.85"/>
      <ellipse cx="80" cy="36.67" rx="188.56" ry="49.03" fill="none" stroke="url(#torusGrad)" stroke-width="0.85"/>
      <ellipse cx="80" cy="49.33" rx="192.76" ry="50.12" fill="none" stroke="url(#torusGrad)" stroke-width="0.85"/>
      <ellipse cx="80" cy="62.00" rx="195.96" ry="50.95" fill="none" stroke="url(#torusGrad)" stroke-width="0.85"/>
      <ellipse cx="80" cy="74.67" rx="198.21" ry="51.54" fill="none" stroke="url(#torusGrad)" stroke-width="0.85"/>
      <ellipse cx="80" cy="87.33" rx="199.56" ry="51.88" fill="none" stroke="url(#torusGrad)" stroke-width="0.85"/>
      <ellipse cx="80" cy="100.00" rx="200.00" ry="52.00" fill="none" stroke="url(#torusGrad)" stroke-width="0.85"/>
      <ellipse cx="80" cy="112.67" rx="199.56" ry="51.88" fill="none" stroke="url(#torusGrad)" stroke-width="0.85"/>
      <ellipse cx="80" cy="125.33" rx="198.21" ry="51.54" fill="none" stroke="url(#torusGrad)" stroke-width="0.85"/>
      <ellipse cx="80" cy="138.00" rx="195.96" ry="50.95" fill="none" stroke="url(#torusGrad)" stroke-width="0.85"/>
      <ellipse cx="80" cy="150.67" rx="192.76" ry="50.12" fill="none" stroke="url(#torusGrad)" stroke-width="0.85"/>
      <ellipse cx="80" cy="163.33" rx="188.56" ry="49.03" fill="none" stroke="url(#torusGrad)" stroke-width="0.85"/>
      <ellipse cx="80" cy="176.00" rx="183.30" ry="47.66" fill="none" stroke="url(#torusGrad)" stroke-width="0.85"/>
      <ellipse cx="80" cy="188.67" rx="176.89" ry="45.99" fill="none" stroke="url(#torusGrad)" stroke-width="0.85"/>
      <ellipse cx="80" cy="201.33" rx="169.18" ry="43.99" fill="none" stroke="url(#torusGrad)" stroke-width="0.85"/>
      <ellipse cx="80" cy="214.00" rx="160.00" ry="41.60" fill="none" stroke="url(#torusGrad)" stroke-width="0.85"/>
      <ellipse cx="80" cy="226.67" rx="149.07" ry="38.76" fill="none" stroke="url(#torusGrad)" stroke-width="0.85"/>
      <ellipse cx="80" cy="239.33" rx="135.97" ry="35.35" fill="none" stroke="url(#torusGrad)" stroke-width="0.85"/>
      <ellipse cx="80" cy="252.00" rx="120.00" ry="31.20" fill="none" stroke="url(#torusGrad)" stroke-width="0.85"/>
      <ellipse cx="80" cy="264.67" rx="99.78" ry="25.94" fill="none" stroke="url(#torusGrad)" stroke-width="0.85"/>
      <ellipse cx="80" cy="277.33" rx="71.80" ry="18.67" fill="none" stroke="url(#torusGrad)" stroke-width="0.85"/>
      </g>

    <g transform="rotate(-22 570 310)">
      <ellipse cx="570" cy="118.52" rx="74.82" ry="19.45" fill="none" stroke="url(#torusGrad)" stroke-width="0.85"/>
      <ellipse cx="570" cy="131.28" rx="104.09" ry="27.06" fill="none" stroke="url(#torusGrad)" stroke-width="0.85"/>
      <ellipse cx="570" cy="144.05" rx="125.34" ry="32.59" fill="none" stroke="url(#torusGrad)" stroke-width="0.85"/>
      <ellipse cx="570" cy="156.81" rx="142.21" ry="36.97" fill="none" stroke="url(#torusGrad)" stroke-width="0.85"/>
      <ellipse cx="570" cy="169.58" rx="156.13" ry="40.59" fill="none" stroke="url(#torusGrad)" stroke-width="0.85"/>
      <ellipse cx="570" cy="182.34" rx="167.83" ry="43.64" fill="none" stroke="url(#torusGrad)" stroke-width="0.85"/>
      <ellipse cx="570" cy="195.11" rx="177.76" ry="46.22" fill="none" stroke="url(#torusGrad)" stroke-width="0.85"/>
      <ellipse cx="570" cy="207.88" rx="186.20" ry="48.41" fill="none" stroke="url(#torusGrad)" stroke-width="0.85"/>
      <ellipse cx="570" cy="220.64" rx="193.33" ry="50.27" fill="none" stroke="url(#torusGrad)" stroke-width="0.85"/>
      <ellipse cx="570" cy="233.41" rx="199.31" ry="51.82" fill="none" stroke="url(#torusGrad)" stroke-width="0.85"/>
      <ellipse cx="570" cy="246.17" rx="204.23" ry="53.10" fill="none" stroke="url(#torusGrad)" stroke-width="0.85"/>
      <ellipse cx="570" cy="258.94" rx="208.17" ry="54.12" fill="none" stroke="url(#torusGrad)" stroke-width="0.85"/>
      <ellipse cx="570" cy="271.70" rx="211.19" ry="54.91" fill="none" stroke="url(#torusGrad)" stroke-width="0.85"/>
      <ellipse cx="570" cy="284.47" rx="213.31" ry="55.46" fill="none" stroke="url(#torusGrad)" stroke-width="0.85"/>
      <ellipse cx="570" cy="297.23" rx="214.58" ry="55.79" fill="none" stroke="url(#torusGrad)" stroke-width="0.85"/>
      <ellipse cx="570" cy="310.00" rx="215.00" ry="55.90" fill="none" stroke="url(#torusGrad)" stroke-width="0.85"/>
      <ellipse cx="570" cy="322.77" rx="214.58" ry="55.79" fill="none" stroke="url(#torusGrad)" stroke-width="0.85"/>
      <ellipse cx="570" cy="335.53" rx="213.31" ry="55.46" fill="none" stroke="url(#torusGrad)" stroke-width="0.85"/>
      <ellipse cx="570" cy="348.30" rx="211.19" ry="54.91" fill="none" stroke="url(#torusGrad)" stroke-width="0.85"/>
      <ellipse cx="570" cy="361.06" rx="208.17" ry="54.12" fill="none" stroke="url(#torusGrad)" stroke-width="0.85"/>
      <ellipse cx="570" cy="373.83" rx="204.23" ry="53.10" fill="none" stroke="url(#torusGrad)" stroke-width="0.85"/>
      <ellipse cx="570" cy="386.59" rx="199.31" ry="51.82" fill="none" stroke="url(#torusGrad)" stroke-width="0.85"/>
      <ellipse cx="570" cy="399.36" rx="193.33" ry="50.27" fill="none" stroke="url(#torusGrad)" stroke-width="0.85"/>
      <ellipse cx="570" cy="412.12" rx="186.20" ry="48.41" fill="none" stroke="url(#torusGrad)" stroke-width="0.85"/>
      <ellipse cx="570" cy="424.89" rx="177.76" ry="46.22" fill="none" stroke="url(#torusGrad)" stroke-width="0.85"/>
      <ellipse cx="570" cy="437.66" rx="167.83" ry="43.64" fill="none" stroke="url(#torusGrad)" stroke-width="0.85"/>
      <ellipse cx="570" cy="450.42" rx="156.13" ry="40.59" fill="none" stroke="url(#torusGrad)" stroke-width="0.85"/>
      <ellipse cx="570" cy="463.19" rx="142.21" ry="36.97" fill="none" stroke="url(#torusGrad)" stroke-width="0.85"/>
      <ellipse cx="570" cy="475.95" rx="125.34" ry="32.59" fill="none" stroke="url(#torusGrad)" stroke-width="0.85"/>
      <ellipse cx="570" cy="488.72" rx="104.09" ry="27.06" fill="none" stroke="url(#torusGrad)" stroke-width="0.85"/>
      <ellipse cx="570" cy="501.48" rx="74.82" ry="19.45" fill="none" stroke="url(#torusGrad)" stroke-width="0.85"/>
      </g>
  </g>

  <g font-family="'Helvetica Neue', Helvetica, Arial, sans-serif">
    <text x="44" y="108" font-size="74" font-weight="900" fill="#ffffff" letter-spacing="-4">EZ</text>
    <text x="140" y="108" font-size="42" font-weight="800" fill="url(#fuelGrey)" letter-spacing="-1">FUEL</text>
    <text x="244" y="108" font-size="42" font-weight="800" fill="url(#proGrad)" letter-spacing="-1">PRO</text>
    <text x="337" y="80" font-size="19" font-weight="700" fill="#ffffff" opacity="0.85" letter-spacing="0.5">&#8482;</text>
  </g>

  <!-- Card number -->
  <g font-family="'Courier New', 'Consolas', monospace" fill="#ffffff">
    <text x="44" y="260" font-size="22" font-weight="700" letter-spacing="3" opacity="0.92">4721</text>
    <text x="128" y="260" font-size="22" font-weight="700" letter-spacing="3" opacity="0.92">••••</text>
    <text x="212" y="260" font-size="22" font-weight="700" letter-spacing="3" opacity="0.92">••••</text>
    <text x="296" y="260" font-size="22" font-weight="700" letter-spacing="3" opacity="0.92">8472</text>
  </g>

  <!-- Cardholder name + expiry -->
  <g font-family="'Helvetica Neue', Helvetica, Arial, sans-serif" fill="#ffffff">
    <text x="44" y="305" font-size="9" font-weight="500" letter-spacing="2" opacity="0.5">CARDHOLDER</text>
    <text x="44" y="325" font-size="16" font-weight="700" letter-spacing="1.5" opacity="0.95">JOHN CARTER</text>
    <text x="280" y="305" font-size="9" font-weight="500" letter-spacing="2" opacity="0.5">VALID THRU</text>
    <text x="280" y="325" font-size="16" font-weight="700" letter-spacing="1.5" opacity="0.95">12/28</text>
  </g>

  <g transform="translate(490, 360)">
    <text x="0" y="0" font-family="'Times New Roman', Times, Georgia, serif"
          font-size="56" font-weight="700" fill="#ffffff" letter-spacing="1">EFS</text>
    <text x="108" y="-26" font-family="'Times New Roman', Times, serif"
          font-size="15" fill="#ffffff">&#174;</text>
  </g>
</svg>
