<svg xmlns="http://www.w3.org/2000/svg" viewBox="0 0 900 500" width="900" height="500">
  <defs>
    <radialGradient id="hubGlow" cx="50%" cy="50%" r="50%">
      <stop offset="0%" stop-color="#22D3EE" stop-opacity="0.8"/>
      <stop offset="70%" stop-color="#22D3EE" stop-opacity="0.15"/>
      <stop offset="100%" stop-color="#22D3EE" stop-opacity="0"/>
    </radialGradient>
    <filter id="softBlur"><feGaussianBlur stdDeviation="1.5"/></filter>
  </defs>
  <g opacity="0.35" stroke="#22D3EE" stroke-width="0.8" fill="none" stroke-dasharray="4 6">
    <line x1="791.4" y1="178.8" x2="580.3" y2="155.8"/>
    <line x1="580.3" y1="155.8" x2="437.6" y2="330.8"/>
    <line x1="437.6" y1="330.8" x2="105.5" y2="307.7"/>
    <line x1="105.5" y1="307.7" x2="41.9" y2="46.2"/>
    <line x1="41.9" y1="46.2" x2="310.3" y2="198.1"/>
    <line x1="310.3" y1="198.1" x2="580.3" y2="155.8"/>
    <line x1="437.6" y1="330.8" x2="630.0" y2="311.5"/>
    <line x1="630.0" y1="311.5" x2="791.4" y2="178.8"/>
    <line x1="459.3" y1="388.5" x2="630.0" y2="311.5"/>
    <line x1="200.2" y1="319.2" x2="437.6" y2="330.8"/>
    <line x1="310.3" y1="198.1" x2="426.7" y2="278.8"/>
  </g>
  <g fill="#22D3EE" opacity="0.18">
    <circle cx="77.6" cy="76.9" r="1.6"/>
    <circle cx="77.6" cy="153.8" r="1.6"/>
    <circle cx="139.7" cy="76.9" r="1.6"/>
    <circle cx="232.8" cy="57.7" r="1.6"/>
    <circle cx="310.3" cy="38.5" r="1.6"/>
    <circle cx="387.9" cy="57.7" r="1.6"/>
    <circle cx="465.5" cy="76.9" r="1.6"/>
    <circle cx="77.6" cy="230.8" r="1.6"/>
    <circle cx="170.7" cy="192.3" r="1.6"/>
    <circle cx="263.8" cy="192.3" r="1.6"/>
    <circle cx="356.9" cy="173.1" r="1.6"/>
    <circle cx="450.0" cy="134.6" r="1.6"/>
    <circle cx="543.1" cy="115.4" r="1.6"/>
    <circle cx="620.7" cy="115.4" r="1.6"/>
    <circle cx="139.7" cy="307.7" r="1.6"/>
    <circle cx="232.8" cy="288.5" r="1.6"/>
    <circle cx="325.9" cy="288.5" r="1.6"/>
    <circle cx="419.0" cy="230.8" r="1.6"/>
    <circle cx="512.1" cy="250.0" r="1.6"/>
    <circle cx="589.7" cy="230.8" r="1.6"/>
    <circle cx="651.7" cy="230.8" r="1.6"/>
    <circle cx="170.7" cy="365.4" r="1.6"/>
    <circle cx="263.8" cy="365.4" r="1.6"/>
    <circle cx="356.9" cy="346.2" r="1.6"/>
    <circle cx="450.0" cy="326.9" r="1.6"/>
    <circle cx="512.1" cy="326.9" r="1.6"/>
    <circle cx="589.7" cy="307.7" r="1.6"/>
    <circle cx="667.2" cy="307.7" r="1.6"/>
    <circle cx="403.4" cy="384.6" r="1.6"/>
    <circle cx="496.6" cy="346.2" r="1.6"/>
    <circle cx="574.1" cy="346.2" r="1.6"/>
    <circle cx="636.2" cy="365.4" r="1.6"/>
    <circle cx="682.8" cy="326.9" r="1.6"/>
    <circle cx="729.3" cy="269.2" r="1.6"/>
    <circle cx="791.4" cy="134.6" r="1.6"/>
    <circle cx="853.4" cy="96.2" r="1.6"/>
    <circle cx="682.8" cy="442.3" r="1.6"/>
    <circle cx="667.2" cy="423.1" r="1.6"/>
    <circle cx="667.2" cy="384.6" r="1.6"/>
  </g>
  <g fill="#22D3EE" opacity="0.5">
    <circle cx="543.1" cy="286.5" r="2.6"/>
    <circle cx="592.8" cy="265.4" r="2.6"/>
    <circle cx="491.9" cy="98.1" r="2.6"/>
    <circle cx="651.7" cy="148.1" r="2.6"/>
    <circle cx="836.4" cy="146.2" r="2.6"/>
    <circle cx="671.9" cy="378.8" r="2.6"/>
    <circle cx="540.0" cy="219.2" r="2.6"/>
    <circle cx="471.7" cy="209.6" r="2.6"/>
    <circle cx="203.3" cy="176.9" r="2.6"/>
    <circle cx="153.6" cy="265.4" r="2.6"/>
    <circle cx="423.6" cy="378.8" r="2.6"/>
    <circle cx="602.1" cy="196.2" r="2.6"/>
    <circle cx="48.1" cy="244.2" r="2.6"/>
    <circle cx="772.8" cy="194.2" r="2.6"/>
    <circle cx="35.7" cy="86.5" r="2.6"/>
    <circle cx="121.0" cy="332.7" r="2.6"/>
    <circle cx="311.9" cy="351.9" r="2.6"/>
    <circle cx="751.0" cy="205.8" r="2.6"/>
    <circle cx="616.0" cy="288.5" r="2.6"/>
    <circle cx="653.3" cy="284.6" r="2.6"/>
    <circle cx="685.9" cy="284.6" r="2.6"/>
    <circle cx="735.5" cy="207.7" r="2.6"/>
    <circle cx="360.0" cy="284.6" r="2.6"/>
    <circle cx="543.1" cy="384.6" r="2.6"/>
  </g>
  <circle cx="791.4" cy="178.8" r="20" fill="url(#hubGlow)"/>
  <circle cx="791.4" cy="178.8" r="4" fill="#22D3EE">
    <animate attributeName="r" values="3.5;5.5;3.5" dur="2.4s" repeatCount="indefinite"/>
    <animate attributeName="opacity" values="1;0.5;1" dur="2.4s" repeatCount="indefinite"/>
  </circle>
  <circle cx="105.5" cy="307.7" r="20" fill="url(#hubGlow)"/>
  <circle cx="105.5" cy="307.7" r="4" fill="#22D3EE">
    <animate attributeName="r" values="3.5;5.5;3.5" dur="2.4s" repeatCount="indefinite"/>
    <animate attributeName="opacity" values="1;0.5;1" dur="2.4s" repeatCount="indefinite"/>
  </circle>
  <circle cx="580.3" cy="155.8" r="20" fill="url(#hubGlow)"/>
  <circle cx="580.3" cy="155.8" r="4" fill="#22D3EE">
    <animate attributeName="r" values="3.5;5.5;3.5" dur="2.4s" repeatCount="indefinite"/>
    <animate attributeName="opacity" values="1;0.5;1" dur="2.4s" repeatCount="indefinite"/>
  </circle>
  <circle cx="459.3" cy="388.5" r="20" fill="url(#hubGlow)"/>
  <circle cx="459.3" cy="388.5" r="4" fill="#22D3EE">
    <animate attributeName="r" values="3.5;5.5;3.5" dur="2.4s" repeatCount="indefinite"/>
    <animate attributeName="opacity" values="1;0.5;1" dur="2.4s" repeatCount="indefinite"/>
  </circle>
  <circle cx="200.2" cy="319.2" r="20" fill="url(#hubGlow)"/>
  <circle cx="200.2" cy="319.2" r="4" fill="#22D3EE">
    <animate attributeName="r" values="3.5;5.5;3.5" dur="2.4s" repeatCount="indefinite"/>
    <animate attributeName="opacity" values="1;0.5;1" dur="2.4s" repeatCount="indefinite"/>
  </circle>
  <circle cx="437.6" cy="330.8" r="20" fill="url(#hubGlow)"/>
  <circle cx="437.6" cy="330.8" r="4" fill="#22D3EE">
    <animate attributeName="r" values="3.5;5.5;3.5" dur="2.4s" repeatCount="indefinite"/>
    <animate attributeName="opacity" values="1;0.5;1" dur="2.4s" repeatCount="indefinite"/>
  </circle>
  <circle cx="630.0" cy="311.5" r="20" fill="url(#hubGlow)"/>
  <circle cx="630.0" cy="311.5" r="4" fill="#22D3EE">
    <animate attributeName="r" values="3.5;5.5;3.5" dur="2.4s" repeatCount="indefinite"/>
    <animate attributeName="opacity" values="1;0.5;1" dur="2.4s" repeatCount="indefinite"/>
  </circle>
  <circle cx="310.3" cy="198.1" r="20" fill="url(#hubGlow)"/>
  <circle cx="310.3" cy="198.1" r="4" fill="#22D3EE">
    <animate attributeName="r" values="3.5;5.5;3.5" dur="2.4s" repeatCount="indefinite"/>
    <animate attributeName="opacity" values="1;0.5;1" dur="2.4s" repeatCount="indefinite"/>
  </circle>
  <circle cx="41.9" cy="46.2" r="20" fill="url(#hubGlow)"/>
  <circle cx="41.9" cy="46.2" r="4" fill="#22D3EE">
    <animate attributeName="r" values="3.5;5.5;3.5" dur="2.4s" repeatCount="indefinite"/>
    <animate attributeName="opacity" values="1;0.5;1" dur="2.4s" repeatCount="indefinite"/>
  </circle>
  <circle cx="426.7" cy="278.8" r="20" fill="url(#hubGlow)"/>
  <circle cx="426.7" cy="278.8" r="4" fill="#22D3EE">
    <animate attributeName="r" values="3.5;5.5;3.5" dur="2.4s" repeatCount="indefinite"/>
    <animate attributeName="opacity" values="1;0.5;1" dur="2.4s" repeatCount="indefinite"/>
  </circle>
  <circle cx="695.2" cy="465.4" r="20" fill="url(#hubGlow)"/>
  <circle cx="695.2" cy="465.4" r="4" fill="#22D3EE">
    <animate attributeName="r" values="3.5;5.5;3.5" dur="2.4s" repeatCount="indefinite"/>
    <animate attributeName="opacity" values="1;0.5;1" dur="2.4s" repeatCount="indefinite"/>
  </circle>
</svg>